# xmcd CD database file
#
# Track frame offsets:
#	150
#	16405
#	27273
#	40256
#	59313
#	71221
#	90406
#	102277
#	116517
#	130611
#	143358
#	155773
#
# Disc length: 2272 seconds
#
# Revision: 1
# Processed by: cddbd v1.5.2PL0 Copyright (c) Steve Scherf et al.
# Submitted via: CDex 1.81
#
DISCID=9808de0c
DTITLE=Nobuo Hara and Sharps And Flats - Dynamic Brass
DYEAR=1969
DGENRE=Jazz
TTITLE0=Gumba Gumba
TTITLE1=The Look Of Love
TTITLE2=Wave
TTITLE3=Sittin' On The Dock Of The Bay
TTITLE4=Moneypenny Goes For Broke
TTITLE5=Hey Jude
TTITLE6=Scaborough Fair/Caanticle
TTITLE7=The Fool On The Hill
TTITLE8=People
TTITLE9=Hold On, I'm Comin'
TTITLE10=Those Were The Days
TTITLE11=Amen
EXTD=YEAR: 1969
EXTT0=
EXTT1=
EXTT2=
EXTT3=
EXTT4=
EXTT5=
EXTT6=
EXTT7=
EXTT8=
EXTT9=
EXTT10=
EXTT11=
PLAYORDER=
